<?xml version="1.0" encoding="UTF-8"?>
<svg xmlns="http://www.w3.org/2000/svg"
    viewBox="15 15 43 43"
>
    <defs>
        <style>
            .cls-1{fill:#8bc53f;}
            .cls-2{fill:#4d7721;}
        </style>
    </defs>
    <path class="cls-2" d="M23.56,34.47c.54-7.75,5.38-13.43,12.98-13.43,4.96,0,9.05,2.86,11.27,7.13l5.08-3.15c-3.1-5.55-8.7-9.23-16.36-9.23-11.46,0-18.52,8.25-19.1,18.69h6.12Z"/>
    <path class="cls-1" d="M37.41,34.47v4.91h11.62c-1.17,6.42-5.9,11.33-12.5,11.33s-11.54-4.68-12.75-11.33h-6.14c1.36,9.37,8.22,16.53,18.89,16.53,6.02,0,10.63-2.63,13.49-6.54v6.07h4.85v-20.97h-17.47Z"/>
</svg>