<?xml version="1.0" encoding="UTF-8"?><svg id="Layer_1" xmlns="http://www.w3.org/2000/svg" viewBox="0 0 246.82 76.41"><defs><style>.cls-1{fill:#a6a8ab;}.cls-2{fill:#4d4d4f;}</style></defs><g><path class="cls-2" d="M69.19,33.22l-1.26,4.2c-1.04-.78-2.21-1.3-3.25-1.3-3.16,0-5.55,2.51-5.55,5.89v12.31h-4.12v-21.66h4.12v2.69c1.6-1.86,3.94-3.03,6.41-3.03,1.3,0,2.56,.3,3.64,.91Z"/><path class="cls-2" d="M92.03,42.93l-17.55,3.16c.91,2.64,3.47,4.59,6.46,4.59,3.9,0,6.8-2.77,7.45-4.64l3.51,1.17c-.78,2.08-4.33,7.24-10.96,7.24-4.59-.04-9.06-3.08-10.62-7.63-.39-1.13-.56-2.34-.56-3.55,0-6.2,4.98-11.18,11.18-11.22,5.81,.04,10.66,4.55,11.09,10.27,0,.26,.04,.43,0,.61Zm-4.68-2.47c-1.04-2.82-3.86-4.77-6.89-4.68-3.38,.13-6.2,2.86-6.5,6.24,0,.13,0,.43-.04,.82l13.43-2.38Z"/><path class="cls-2" d="M117.54,42.93l-17.55,3.16c.91,2.64,3.47,4.59,6.46,4.59,3.9,0,6.8-2.77,7.45-4.64l3.51,1.17c-.78,2.08-4.33,7.24-10.96,7.24-4.59-.04-9.06-3.08-10.62-7.63-.39-1.13-.56-2.34-.56-3.55,0-6.2,4.98-11.18,11.18-11.22,5.81,.04,10.66,4.55,11.09,10.27,0,.26,.04,.43,0,.61Zm-4.68-2.47c-1.04-2.82-3.86-4.77-6.89-4.68-3.38,.13-6.2,2.86-6.5,6.24,0,.13,0,.43-.04,.82l13.43-2.38Z"/><path class="cls-2" d="M140.63,41.85v12.48h-4.2v-12.35c0-3.34-2.38-5.85-5.55-5.85s-5.55,2.51-5.55,5.89v12.31h-4.12v-21.66h4.12v2.69c1.6-1.86,3.94-3.03,6.41-3.03,5.16,0,8.88,4.2,8.88,9.53Z"/><path class="cls-2" d="M26.25,38.77c.4-5.75,3.99-9.96,9.63-9.96,3.68,0,6.72,2.12,8.36,5.29l3.77-2.34c-2.3-4.12-6.46-6.85-12.13-6.85-8.5,0-13.74,6.12-14.17,13.86h4.54Z"/></g><g><g><path class="cls-1" d="M154.71,35.78h-3.94v18.54h-4.07v-18.54h-2.56v-3.21h2.56v-6.2c0-2.77,1.52-4.64,3.99-4.64,2.21,0,3.81,.65,3.81,.65l-.82,3.12s-.82-.22-1.56-.22c-1.04,0-1.34,.56-1.34,2.38v4.9h3.94v3.21Z"/><path class="cls-1" d="M158.69,25.34c0-1.3,1.04-2.34,2.34-2.34s2.34,1.04,2.34,2.34-1.08,2.34-2.34,2.34-2.34-1.04-2.34-2.34Zm.26,7.32h4.12v21.66h-4.12v-21.66Z"/><path class="cls-1" d="M189.85,42.93l-17.55,3.16c.91,2.64,3.47,4.59,6.46,4.59,3.9,0,6.8-2.77,7.45-4.64l3.51,1.17c-.78,2.08-4.33,7.24-10.96,7.24-4.59-.04-9.06-3.08-10.62-7.63-.39-1.13-.56-2.34-.56-3.55,0-6.2,4.98-11.18,11.18-11.22,5.81,.04,10.66,4.55,11.09,10.27,0,.26,.04,.43,0,.61Zm-4.68-2.47c-1.04-2.82-3.86-4.77-6.89-4.68-3.38,.13-6.2,2.86-6.5,6.24,0,.13,0,.43-.04,.82l13.43-2.38Z"/><path class="cls-1" d="M194.39,22.05h4.12V54.32h-4.12V22.05Z"/><path class="cls-1" d="M225.11,22.05V54.32h-4.12v-2.38c-1.95,1.69-4.51,2.73-7.32,2.73-6.2,0-11.18-5.03-11.18-11.18s4.98-11.18,11.18-11.18c2.82,0,5.37,1.04,7.32,2.73v-13h4.12Zm-4.29,21.45c0-4.16-3.03-7.28-7.06-7.28s-7.06,3.12-7.06,7.28,3.03,7.28,7.06,7.28,7.06-3.12,7.06-7.28Z"/></g><path class="cls-1" d="M36.53,38.77v3.64h8.62c-.87,4.77-4.38,8.41-9.27,8.41s-8.56-3.47-9.46-8.41h-4.56c1.01,6.95,6.09,12.26,14.01,12.26,4.46,0,7.89-1.95,10.01-4.85v4.51h3.6v-15.56h-12.96Z"/></g></svg>